<svg width="479.29750976562497px" height="122.021240234375px" xmlns="http://www.w3.org/2000/svg" viewBox="10.351245117187517 13.9893798828125 479.29750976562497 122.021240234375" style="background: rgba(0, 0, 0, 0);" preserveAspectRatio="xMidYMid"><defs><linearGradient id="editing-shiny-gradient" x1="0.04322727117869957" x2="0.9567727288213004" y1="0.2966316784620999" y2="0.7033683215379001" gradientUnits="objectBoundingBox"><stop offset="0.0" stop-color="#ffb200"></stop><stop offset="0.5" stop-color="#e10057"></stop><stop offset="1.0" stop-color="#5A1A80"></stop></linearGradient><linearGradient id="editing-shiny-gradient2" x1="0" x2="0" y1="0" y2="1"><stop offset="0.2" stop-color="#fff" stop-opacity="0.8"></stop><stop offset="0.8" stop-color="#fff" stop-opacity="0"></stop></linearGradient><filter id="editing-shiny2" x="-100%" y="-100%" width="300%" height="300%"><feMorphology operator="erode" radius="2"></feMorphology></filter><filter id="editing-shiny" x="-100%" y="-100%" width="300%" height="300%"><feFlood flood-color="#fff" result="flood"></feFlood><feConvolveMatrix in="SourceGraphic" result="conv" order="8,8" divisor="1" kernelMatrix="0 0 0 0 0 0 0 0 0 0 0 1 1 0 0 0 0 0 0 1 1 0 0 0 0 0 1 0 0 1 0 0 0 0 1 0 0 1 0 0 0 1 0 0 0 0 1 0 0 1 1 0 0 1 1 0 0 0 0 1 1 0 0 0 "></feConvolveMatrix><feOffset dx="0" dy="4" in="conv" result="offset"></feOffset><feComposite operator="in" in="flood" in2="offset" result="comp"></feComposite><feGaussianBlur in="offset" stdDeviation="3" result="shadow"></feGaussianBlur><feColorMatrix in="shadow" type="matrix" values="0.7 0 0 0 0  0 0.7 0 0 0  0 0 0.7 0 0  0 0 0 0.3 0" result="dark-shadow"></feColorMatrix><feOffset dx="0" dy="4" in="dark-shadow" result="offset-shadow"></feOffset><feOffset dx="0" dy="2" in="conv" result="offset-2"></feOffset><feComposite operator="out" in="offset" in2="offset-2" result="edge-diff"></feComposite><feGaussianBlur in="edge-diff" stdDeviation="1" result="edge-blur"></feGaussianBlur><feColorMatrix in="edge-blur" result="edge-shadow" type="matrix" values="0 0 0 0 0  0 0 0 0 0  0 0 0 0 0  0 0 0 0.5 0"></feColorMatrix><feComposite operator="in" in="edge-shadow" in2="offset" result="edge-shadow-in"></feComposite><feOffset dx="0" dy="1" in="edge-shadow-in" result="edge-shadow-final"></feOffset><feMerge result="out"><feMergeNode in="offset-shadow"></feMergeNode><feMergeNode in="comp"></feMergeNode><feMergeNode in="edge-shadow-final"></feMergeNode><feMergeNode in="SourceGraphic"></feMergeNode></feMerge></filter></defs><g filter="url(#editing-shiny)"><g transform="translate(80.27375364303589, 97.42218780517578)"><path d="M27.01-20.61L39.94-21.76L39.94-21.76Q35.33-11.65 35.33 0.06L35.33 0.06L35.33 0.06Q33.60 1.28 31.07 1.28L31.07 1.28L31.07 1.28Q28.54 1.28 26.94 0.10L26.94 0.10L26.94 0.10Q25.34-1.09 25.02-2.30L25.02-2.30L25.02-2.30Q23.42-0.64 20.83 0.32L20.83 0.32L20.83 0.32Q18.24 1.28 15.49 1.28L15.49 1.28L15.49 1.28Q12.74 1.28 10.34 0.38L10.34 0.38L10.34 0.38Q7.94-0.51 6.08-2.50L6.08-2.50L6.08-2.50Q1.98-6.85 1.98-15.10L1.98-15.10L1.98-15.10Q1.98-27.90 8.83-35.58L8.83-35.58L8.83-35.58Q15.87-43.52 28.35-43.52L28.35-43.52L28.35-43.52Q36.99-43.52 40.06-39.04L40.06-39.04L40.06-39.04Q41.02-37.63 41.02-35.94L41.02-35.94L41.02-35.94Q41.02-34.24 40.29-32.80L40.29-32.80L40.29-32.80Q39.55-31.36 38.40-30.21L38.40-30.21L38.40-30.21Q35.65-27.65 32.26-27.65L32.26-27.65L32.26-27.65Q30.91-27.65 29.63-28.10L29.63-28.10L29.63-28.10Q29.89-30.02 29.89-32.26L29.89-32.26L29.89-32.26Q29.89-34.50 29.73-35.52L29.73-35.52L29.73-35.52Q29.57-36.54 29.18-37.38L29.18-37.38L29.18-37.38Q28.35-39.10 26.53-39.10L26.53-39.10L26.53-39.10Q24.70-39.10 22.69-37.15L22.69-37.15L22.69-37.15Q20.67-35.20 19.07-32L19.07-32L19.07-32Q15.55-24.83 15.55-16.19L15.55-16.19L15.55-16.19Q15.55-12.22 17.09-9.41L17.09-9.41L17.09-9.41Q18.75-6.34 21.70-6.34L21.70-6.34L21.70-6.34Q22.72-6.34 23.65-6.85L23.65-6.85L23.65-6.85Q24.58-7.36 24.96-7.74L24.96-7.74L27.01-20.61ZM45.86-1.92L45.86-1.92L45.86-1.92Q44.35-3.58 43.68-6.21L43.68-6.21L43.68-6.21Q43.01-8.83 43.01-13.12L43.01-13.12L43.01-13.12Q43.01-17.41 44.48-21.31L44.48-21.31L44.48-21.31Q45.95-25.22 48.64-28.03L48.64-28.03L48.64-28.03Q54.14-33.92 63.23-33.92L63.23-33.92L63.23-33.92Q66.50-33.92 68.86-32.83L68.86-32.83L79.81-33.92L75.07-8.96L75.07-8.96Q74.88-8.19 74.88-6.78L74.88-6.78L74.88-6.78Q74.88-5.38 75.74-4.48L75.74-4.48L75.74-4.48Q76.61-3.58 77.89-3.46L77.89-3.46L77.89-3.46Q77.25-1.28 74.91 0L74.91 0L74.91 0Q72.58 1.28 69.95 1.28L69.95 1.28L69.95 1.28Q67.33 1.28 65.57 0.29L65.57 0.29L65.57 0.29Q63.81-0.70 63.30-2.37L63.30-2.37L63.30-2.37Q62.27-0.77 60.10 0.26L60.10 0.26L60.10 0.26Q57.92 1.28 55.01 1.28L55.01 1.28L55.01 1.28Q52.10 1.28 49.73 0.51L49.73 0.51L49.73 0.51Q47.36-0.26 45.86-1.92ZM59.36-27.90L59.36-27.90L59.36-27.90Q58.62-26.75 57.98-24.80L57.98-24.80L57.98-24.80Q57.34-22.85 56.29-17.63L56.29-17.63L56.29-17.63Q55.23-12.42 55.23-8.70L55.23-8.70L55.23-8.70Q55.23-4.99 55.81-3.90L55.81-3.90L55.81-3.90Q56.38-2.82 57.41-2.82L57.41-2.82L57.41-2.82Q59.46-2.82 60.96-4.77L60.96-4.77L60.96-4.77Q62.46-6.72 63.04-10.18L63.04-10.18L66.43-28.93L66.43-28.93Q65.09-30.08 63.52-30.08L63.52-30.08L63.52-30.08Q61.95-30.08 61.02-29.57L61.02-29.57L61.02-29.57Q60.10-29.06 59.36-27.90ZM129.34 1.28L129.34 1.28L129.34 1.28Q121.60 1.28 121.60-4.74L121.60-4.74L121.60-4.74Q121.60-7.36 122.72-12.45L122.72-12.45L122.72-12.45Q123.84-17.54 124.22-19.58L124.22-19.58L124.22-19.58Q125.12-24.26 125.12-25.73L125.12-25.73L125.12-25.73Q125.12-28.99 122.69-28.99L122.69-28.99L122.69-28.99Q121.09-28.99 119.55-26.78L119.55-26.78L119.55-26.78Q118.02-24.58 117.31-20.16L117.31-20.16L113.34 0L100.86 1.28L104.32-16.13L104.32-16.13Q104.90-19.01 105.41-22.27L105.41-22.27L105.41-22.27Q105.92-25.54 105.92-26.05L105.92-26.05L105.92-26.05Q105.92-28.99 103.74-28.99L103.74-28.99L103.74-28.99Q102.27-28.99 100.67-26.82L100.67-26.82L100.67-26.82Q99.07-24.64 98.18-20.16L98.18-20.16L94.27 0L81.66 1.28L88.38-32.64L98.82-33.92L97.73-27.46L97.73-27.46Q99.39-30.91 102.46-32.42L102.46-32.42L102.46-32.42Q105.54-33.92 110.34-33.92L110.34-33.92L110.34-33.92Q113.09-33.92 114.88-32.58L114.88-32.58L114.88-32.58Q116.67-31.23 117.25-29.06L117.25-29.06L117.25-29.06Q118.34-31.30 121.12-32.61L121.12-32.61L121.12-32.61Q123.90-33.92 127.33-33.92L127.33-33.92L127.33-33.92Q130.75-33.92 132.45-33.18L132.45-33.18L132.45-33.18Q134.14-32.45 135.17-31.23L135.17-31.23L135.17-31.23Q136.90-28.99 136.90-24.90L136.90-24.90L136.90-24.90Q136.90-20.86 135.17-12.48L135.17-12.48L135.17-12.48Q134.27-8.38 134.27-6.88L134.27-6.88L134.27-6.88Q134.27-5.38 135.14-4.48L135.14-4.48L135.14-4.48Q136-3.58 137.28-3.46L137.28-3.46L137.28-3.46Q136.64-1.28 134.43 0L134.43 0L134.43 0Q132.22 1.28 129.34 1.28ZM168.13-10.82L168.13-10.82L168.13-10.82Q169.73-9.73 169.73-7.33L169.73-7.33L169.73-7.33Q169.73-4.93 168.51-3.39L168.51-3.39L168.51-3.39Q167.30-1.86 165.31-0.83L165.31-0.83L165.31-0.83Q161.22 1.28 156.80 1.28L156.80 1.28L156.80 1.28Q152.38 1.28 149.79 0.32L149.79 0.32L149.79 0.32Q147.20-0.64 145.47-2.43L145.47-2.43L145.47-2.43Q142.08-5.82 142.08-12.03L142.08-12.03L142.08-12.03Q142.08-21.70 147.33-27.58L147.33-27.58L147.33-27.58Q152.96-33.92 162.75-33.92L162.75-33.92L162.75-33.92Q168.83-33.92 171.84-31.36L171.84-31.36L171.84-31.36Q174.08-29.44 174.08-26.30L174.08-26.30L174.08-26.30Q174.08-15.04 154.62-15.04L154.62-15.04L154.62-15.04Q154.37-13.38 154.37-11.97L154.37-11.97L154.37-11.97Q154.37-9.02 155.68-7.90L155.68-7.90L155.68-7.90Q156.99-6.78 159.42-6.78L159.42-6.78L159.42-6.78Q161.86-6.78 164.45-7.90L164.45-7.90L164.45-7.90Q167.04-9.02 168.13-10.82ZM155.07-17.79L155.07-17.79L155.07-17.79Q159.62-17.79 162.24-20.61L162.24-20.61L162.24-20.61Q164.86-23.30 164.86-27.58L164.86-27.58L164.86-27.58Q164.86-29.06 164.32-29.86L164.32-29.86L164.32-29.86Q163.78-30.66 162.69-30.66L162.69-30.66L162.69-30.66Q161.60-30.66 160.67-30.24L160.67-30.24L160.67-30.24Q159.74-29.82 158.78-28.42L158.78-28.42L158.78-28.42Q156.42-25.22 155.07-17.79ZM190.40-15.62L190.40-15.62L190.40-15.62Q190.40-27.71 196.67-35.33L196.67-35.33L196.67-35.33Q203.33-43.58 214.91-43.58L214.91-43.58L214.91-43.58Q223.30-43.58 227.52-39.52L227.52-39.52L227.52-39.52Q231.74-35.46 231.74-26.88L231.74-26.88L231.74-26.88Q231.74-13.82 225.09-6.21L225.09-6.21L225.09-6.21Q218.50 1.28 207.42 1.28L207.42 1.28L207.42 1.28Q198.78 1.28 194.59-3.04L194.59-3.04L194.59-3.04Q190.40-7.36 190.40-15.62ZM207.23-28.86L207.23-28.86L207.23-28.86Q204.35-17.34 204.35-8.26L204.35-8.26L204.35-8.26Q204.35-6.08 205.09-4.67L205.09-4.67L205.09-4.67Q205.82-3.26 207.78-3.26L207.78-3.26L207.78-3.26Q209.73-3.26 210.94-4.19L210.94-4.19L210.94-4.19Q212.16-5.12 213.12-7.23L213.12-7.23L213.12-7.23Q214.66-10.69 216.10-18.02L216.10-18.02L216.10-18.02Q217.54-25.34 217.66-28.38L217.66-28.38L217.66-28.38Q217.79-31.42 217.79-33.73L217.79-33.73L217.79-33.73Q217.79-36.03 217.09-37.50L217.09-37.50L217.09-37.50Q216.38-38.98 214.50-38.98L214.50-38.98L214.50-38.98Q212.61-38.98 211.33-37.82L211.33-37.82L211.33-37.82Q208.96-35.65 207.23-28.86ZM258.11-31.55L258.11-31.55L258.11-31.55Q260.22-33.92 263.87-33.92L263.87-33.92L263.87-33.92Q266.11-33.92 267.84-32.70L267.84-32.70L267.84-32.70Q269.57-31.49 269.57-29.22L269.57-29.22L269.57-29.22Q269.57-26.94 268.86-24.51L268.86-24.51L268.86-24.51Q268.16-22.08 267.07-19.58L267.07-19.58L267.07-19.58Q264.90-14.72 261.89-10.69L261.89-10.69L261.89-10.69Q257.66-4.86 253.60-1.79L253.60-1.79L253.60-1.79Q249.54 1.28 245.12 1.28L245.12 1.28L245.12 1.28Q241.54 1.28 239.36 0.45L239.36 0.45L239.36 0.45Q238.98-12.99 238.50-17.79L238.50-17.79L238.50-17.79Q238.02-22.59 237.63-25.22L237.63-25.22L237.63-25.22Q236.99-30.34 235.07-31.55L235.07-31.55L235.07-31.55Q236.54-32.83 237.98-33.38L237.98-33.38L237.98-33.38Q239.42-33.92 242.40-33.92L242.40-33.92L242.40-33.92Q245.38-33.92 247.49-31.58L247.49-31.58L247.49-31.58Q249.60-29.25 250.02-25.12L250.02-25.12L250.02-25.12Q250.43-20.99 250.43-16L250.43-16L250.43-16Q250.43-11.01 250.05-4.99L250.05-4.99L250.05-4.99Q252.03-6.40 254.14-10.69L254.14-10.69L254.14-10.69Q257.02-16.64 258.05-23.81L258.05-23.81L258.05-23.81Q258.37-25.98 258.37-28.29L258.37-28.29L258.37-28.29Q258.37-30.59 258.11-31.55ZM297.22-10.82L297.22-10.82L297.22-10.82Q298.82-9.73 298.82-7.33L298.82-7.33L298.82-7.33Q298.82-4.93 297.60-3.39L297.60-3.39L297.60-3.39Q296.38-1.86 294.40-0.83L294.40-0.83L294.40-0.83Q290.30 1.28 285.89 1.28L285.89 1.28L285.89 1.28Q281.47 1.28 278.88 0.32L278.88 0.32L278.88 0.32Q276.29-0.64 274.56-2.43L274.56-2.43L274.56-2.43Q271.17-5.82 271.17-12.03L271.17-12.03L271.17-12.03Q271.17-21.70 276.42-27.58L276.42-27.58L276.42-27.58Q282.05-33.92 291.84-33.92L291.84-33.92L291.84-33.92Q297.92-33.92 300.93-31.36L300.93-31.36L300.93-31.36Q303.17-29.44 303.17-26.30L303.17-26.30L303.17-26.30Q303.17-15.04 283.71-15.04L283.71-15.04L283.71-15.04Q283.46-13.38 283.46-11.97L283.46-11.97L283.46-11.97Q283.46-9.02 284.77-7.90L284.77-7.90L284.77-7.90Q286.08-6.78 288.51-6.78L288.51-6.78L288.51-6.78Q290.94-6.78 293.54-7.90L293.54-7.90L293.54-7.90Q296.13-9.02 297.22-10.82ZM284.16-17.79L284.16-17.79L284.16-17.79Q288.70-17.79 291.33-20.61L291.33-20.61L291.33-20.61Q293.95-23.30 293.95-27.58L293.95-27.58L293.95-27.58Q293.95-29.06 293.41-29.86L293.41-29.86L293.41-29.86Q292.86-30.66 291.78-30.66L291.78-30.66L291.78-30.66Q290.69-30.66 289.76-30.24L289.76-30.24L289.76-30.24Q288.83-29.82 287.87-28.42L287.87-28.42L287.87-28.42Q285.50-25.22 284.16-17.79ZM325.38-17.98L325.38-17.98L325.38-17.98Q327.68-22.08 327.68-26.24L327.68-26.24L327.68-26.24Q327.68-28.99 325.70-28.99L325.70-28.99L325.70-28.99Q324.16-28.99 322.56-26.37L322.56-26.37L322.56-26.37Q320.90-23.74 320.38-20.35L320.38-20.35L317.06 0L303.81 1.28L310.34-32.64L320.90-33.92L319.74-27.46L319.74-27.46Q322.88-33.92 329.92-33.92L329.92-33.92L329.92-33.92Q333.63-33.92 335.65-32L335.65-32L335.65-32Q337.66-30.08 337.66-26.14L337.66-26.14L337.66-26.14Q337.66-22.21 335.07-19.71L335.07-19.71L335.07-19.71Q332.48-17.22 328.06-17.22L328.06-17.22L328.06-17.22Q326.14-17.22 325.38-17.98Z" fill="url(#editing-shiny-gradient)"></path></g></g><g filter="url(#editing-shiny2)"><g transform="translate(80.50812864303589, 97.43000030517578)"><path d="M27.01-20.61L39.94-21.76L39.94-21.76Q35.33-11.65 35.33 0.06L35.33 0.06L35.33 0.06Q33.60 1.28 31.07 1.28L31.07 1.28L31.07 1.28Q28.54 1.28 26.94 0.10L26.94 0.10L26.94 0.10Q25.34-1.09 25.02-2.30L25.02-2.30L25.02-2.30Q23.42-0.64 20.83 0.32L20.83 0.32L20.83 0.32Q18.24 1.28 15.49 1.28L15.49 1.28L15.49 1.28Q12.74 1.28 10.34 0.38L10.34 0.38L10.34 0.38Q7.94-0.51 6.08-2.50L6.08-2.50L6.08-2.50Q1.98-6.85 1.98-15.10L1.98-15.10L1.98-15.10Q1.98-27.90 8.83-35.58L8.83-35.58L8.83-35.58Q15.87-43.52 28.35-43.52L28.35-43.52L28.35-43.52Q36.99-43.52 40.06-39.04L40.06-39.04L40.06-39.04Q41.02-37.63 41.02-35.94L41.02-35.94L41.02-35.94Q41.02-34.24 40.29-32.80L40.29-32.80L40.29-32.80Q39.55-31.36 38.40-30.21L38.40-30.21L38.40-30.21Q35.65-27.65 32.26-27.65L32.26-27.65L32.26-27.65Q30.91-27.65 29.63-28.10L29.63-28.10L29.63-28.10Q29.89-30.02 29.89-32.26L29.89-32.26L29.89-32.26Q29.89-34.50 29.73-35.52L29.73-35.52L29.73-35.52Q29.57-36.54 29.18-37.38L29.18-37.38L29.18-37.38Q28.35-39.10 26.53-39.10L26.53-39.10L26.53-39.10Q24.70-39.10 22.69-37.15L22.69-37.15L22.69-37.15Q20.67-35.20 19.07-32L19.07-32L19.07-32Q15.55-24.83 15.55-16.19L15.55-16.19L15.55-16.19Q15.55-12.22 17.09-9.41L17.09-9.41L17.09-9.41Q18.75-6.34 21.70-6.34L21.70-6.34L21.70-6.34Q22.72-6.34 23.65-6.85L23.65-6.85L23.65-6.85Q24.58-7.36 24.96-7.74L24.96-7.74L27.01-20.61ZM45.86-1.92L45.86-1.92L45.86-1.92Q44.35-3.58 43.68-6.21L43.68-6.21L43.68-6.21Q43.01-8.83 43.01-13.12L43.01-13.12L43.01-13.12Q43.01-17.41 44.48-21.31L44.48-21.31L44.48-21.31Q45.95-25.22 48.64-28.03L48.64-28.03L48.64-28.03Q54.14-33.92 63.23-33.92L63.23-33.92L63.23-33.92Q66.50-33.92 68.86-32.83L68.86-32.83L79.81-33.92L75.07-8.96L75.07-8.96Q74.88-8.19 74.88-6.78L74.88-6.78L74.88-6.78Q74.88-5.38 75.74-4.48L75.74-4.48L75.74-4.48Q76.61-3.58 77.89-3.46L77.89-3.46L77.89-3.46Q77.25-1.28 74.91 0L74.91 0L74.91 0Q72.58 1.28 69.95 1.28L69.95 1.28L69.95 1.28Q67.33 1.28 65.57 0.29L65.57 0.29L65.57 0.29Q63.81-0.70 63.30-2.37L63.30-2.37L63.30-2.37Q62.27-0.77 60.10 0.26L60.10 0.26L60.10 0.26Q57.92 1.28 55.01 1.28L55.01 1.28L55.01 1.28Q52.10 1.28 49.73 0.51L49.73 0.51L49.73 0.51Q47.36-0.26 45.86-1.92ZM59.36-27.90L59.36-27.90L59.36-27.90Q58.62-26.75 57.98-24.80L57.98-24.80L57.98-24.80Q57.34-22.85 56.29-17.63L56.29-17.63L56.29-17.63Q55.23-12.42 55.23-8.70L55.23-8.70L55.23-8.70Q55.23-4.99 55.81-3.90L55.81-3.90L55.81-3.90Q56.38-2.82 57.41-2.82L57.41-2.82L57.41-2.82Q59.46-2.82 60.96-4.77L60.96-4.77L60.96-4.77Q62.46-6.72 63.04-10.18L63.04-10.18L66.43-28.93L66.43-28.93Q65.09-30.08 63.52-30.08L63.52-30.08L63.52-30.08Q61.95-30.08 61.02-29.57L61.02-29.57L61.02-29.57Q60.10-29.06 59.36-27.90ZM129.34 1.28L129.34 1.28L129.34 1.28Q121.60 1.28 121.60-4.74L121.60-4.74L121.60-4.74Q121.60-7.36 122.72-12.45L122.72-12.45L122.72-12.45Q123.84-17.54 124.22-19.58L124.22-19.58L124.22-19.58Q125.12-24.26 125.12-25.73L125.12-25.73L125.12-25.73Q125.12-28.99 122.69-28.99L122.69-28.99L122.69-28.99Q121.09-28.99 119.55-26.78L119.55-26.78L119.55-26.78Q118.02-24.58 117.31-20.16L117.31-20.16L113.34 0L100.86 1.28L104.32-16.13L104.32-16.13Q104.90-19.01 105.41-22.27L105.41-22.27L105.41-22.27Q105.92-25.54 105.92-26.05L105.92-26.05L105.92-26.05Q105.92-28.99 103.74-28.99L103.74-28.99L103.74-28.99Q102.27-28.99 100.67-26.82L100.67-26.82L100.67-26.82Q99.07-24.64 98.18-20.16L98.18-20.16L94.27 0L81.66 1.28L88.38-32.64L98.82-33.92L97.73-27.46L97.73-27.46Q99.39-30.91 102.46-32.42L102.46-32.42L102.46-32.42Q105.54-33.92 110.34-33.92L110.34-33.92L110.34-33.92Q113.09-33.92 114.88-32.58L114.88-32.58L114.88-32.58Q116.67-31.23 117.25-29.06L117.25-29.06L117.25-29.06Q118.34-31.30 121.12-32.61L121.12-32.61L121.12-32.61Q123.90-33.92 127.33-33.92L127.33-33.92L127.33-33.92Q130.75-33.92 132.45-33.18L132.45-33.18L132.45-33.18Q134.14-32.45 135.17-31.23L135.17-31.23L135.17-31.23Q136.90-28.99 136.90-24.90L136.90-24.90L136.90-24.90Q136.90-20.86 135.17-12.48L135.17-12.48L135.17-12.48Q134.27-8.38 134.27-6.88L134.27-6.88L134.27-6.88Q134.27-5.38 135.14-4.48L135.14-4.48L135.14-4.48Q136-3.58 137.28-3.46L137.28-3.46L137.28-3.46Q136.64-1.28 134.43 0L134.43 0L134.43 0Q132.22 1.28 129.34 1.28ZM168.13-10.82L168.13-10.82L168.13-10.82Q169.73-9.73 169.73-7.33L169.73-7.33L169.73-7.33Q169.73-4.93 168.51-3.39L168.51-3.39L168.51-3.39Q167.30-1.86 165.31-0.83L165.31-0.83L165.31-0.83Q161.22 1.28 156.80 1.28L156.80 1.28L156.80 1.28Q152.38 1.28 149.79 0.32L149.79 0.32L149.79 0.32Q147.20-0.64 145.47-2.43L145.47-2.43L145.47-2.43Q142.08-5.82 142.08-12.03L142.08-12.03L142.08-12.03Q142.08-21.70 147.33-27.58L147.33-27.58L147.33-27.58Q152.96-33.92 162.75-33.92L162.75-33.92L162.75-33.92Q168.83-33.92 171.84-31.36L171.84-31.36L171.84-31.36Q174.08-29.44 174.08-26.30L174.08-26.30L174.08-26.30Q174.08-15.04 154.62-15.04L154.62-15.04L154.62-15.04Q154.37-13.38 154.37-11.97L154.37-11.97L154.37-11.97Q154.37-9.02 155.68-7.90L155.68-7.90L155.68-7.90Q156.99-6.78 159.42-6.78L159.42-6.78L159.42-6.78Q161.86-6.78 164.45-7.90L164.45-7.90L164.45-7.90Q167.04-9.02 168.13-10.82ZM155.07-17.79L155.07-17.79L155.07-17.79Q159.62-17.79 162.24-20.61L162.24-20.61L162.24-20.61Q164.86-23.30 164.86-27.58L164.86-27.58L164.86-27.58Q164.86-29.06 164.32-29.86L164.32-29.86L164.32-29.86Q163.78-30.66 162.69-30.66L162.69-30.66L162.69-30.66Q161.60-30.66 160.67-30.24L160.67-30.24L160.67-30.24Q159.74-29.82 158.78-28.42L158.78-28.42L158.78-28.42Q156.42-25.22 155.07-17.79ZM190.40-15.62L190.40-15.62L190.40-15.62Q190.40-27.71 196.67-35.33L196.67-35.33L196.67-35.33Q203.33-43.58 214.91-43.58L214.91-43.58L214.91-43.58Q223.30-43.58 227.52-39.52L227.52-39.52L227.52-39.52Q231.74-35.46 231.74-26.88L231.74-26.88L231.74-26.88Q231.74-13.82 225.09-6.21L225.09-6.21L225.09-6.21Q218.50 1.28 207.42 1.28L207.42 1.28L207.42 1.28Q198.78 1.28 194.59-3.04L194.59-3.04L194.59-3.04Q190.40-7.36 190.40-15.62ZM207.23-28.86L207.23-28.86L207.23-28.86Q204.35-17.34 204.35-8.26L204.35-8.26L204.35-8.26Q204.35-6.08 205.09-4.67L205.09-4.67L205.09-4.67Q205.82-3.26 207.78-3.26L207.78-3.26L207.78-3.26Q209.73-3.26 210.94-4.19L210.94-4.19L210.94-4.19Q212.16-5.12 213.12-7.23L213.12-7.23L213.12-7.23Q214.66-10.69 216.10-18.02L216.10-18.02L216.10-18.02Q217.54-25.34 217.66-28.38L217.66-28.38L217.66-28.38Q217.79-31.42 217.79-33.73L217.79-33.73L217.79-33.73Q217.79-36.03 217.09-37.50L217.09-37.50L217.09-37.50Q216.38-38.98 214.50-38.98L214.50-38.98L214.50-38.98Q212.61-38.98 211.33-37.82L211.33-37.82L211.33-37.82Q208.96-35.65 207.23-28.86ZM258.11-31.55L258.11-31.55L258.11-31.55Q260.22-33.92 263.87-33.92L263.87-33.92L263.87-33.92Q266.11-33.92 267.84-32.70L267.84-32.70L267.84-32.70Q269.57-31.49 269.57-29.22L269.57-29.22L269.57-29.22Q269.57-26.94 268.86-24.51L268.86-24.51L268.86-24.51Q268.16-22.08 267.07-19.58L267.07-19.58L267.07-19.58Q264.90-14.72 261.89-10.69L261.89-10.69L261.89-10.69Q257.66-4.86 253.60-1.79L253.60-1.79L253.60-1.79Q249.54 1.28 245.12 1.28L245.12 1.28L245.12 1.28Q241.54 1.28 239.36 0.45L239.36 0.45L239.36 0.45Q238.98-12.99 238.50-17.79L238.50-17.79L238.50-17.79Q238.02-22.59 237.63-25.22L237.63-25.22L237.63-25.22Q236.99-30.34 235.07-31.55L235.07-31.55L235.07-31.55Q236.54-32.83 237.98-33.38L237.98-33.38L237.98-33.38Q239.42-33.92 242.40-33.92L242.40-33.92L242.40-33.92Q245.38-33.92 247.49-31.58L247.49-31.58L247.49-31.58Q249.60-29.25 250.02-25.12L250.02-25.12L250.02-25.12Q250.43-20.99 250.43-16L250.43-16L250.43-16Q250.43-11.01 250.05-4.99L250.05-4.99L250.05-4.99Q252.03-6.40 254.14-10.69L254.14-10.69L254.14-10.69Q257.02-16.64 258.05-23.81L258.05-23.81L258.05-23.81Q258.37-25.98 258.37-28.29L258.37-28.29L258.37-28.29Q258.37-30.59 258.11-31.55ZM297.22-10.82L297.22-10.82L297.22-10.82Q298.82-9.73 298.82-7.33L298.82-7.33L298.82-7.33Q298.82-4.93 297.60-3.39L297.60-3.39L297.60-3.39Q296.38-1.86 294.40-0.83L294.40-0.83L294.40-0.83Q290.30 1.28 285.89 1.28L285.89 1.28L285.89 1.28Q281.47 1.28 278.88 0.32L278.88 0.32L278.88 0.32Q276.29-0.64 274.56-2.43L274.56-2.43L274.56-2.43Q271.17-5.82 271.17-12.03L271.17-12.03L271.17-12.03Q271.17-21.70 276.42-27.58L276.42-27.58L276.42-27.58Q282.05-33.92 291.84-33.92L291.84-33.92L291.84-33.92Q297.92-33.92 300.93-31.36L300.93-31.36L300.93-31.36Q303.17-29.44 303.17-26.30L303.17-26.30L303.17-26.30Q303.17-15.04 283.71-15.04L283.71-15.04L283.71-15.04Q283.46-13.38 283.46-11.97L283.46-11.97L283.46-11.97Q283.46-9.02 284.77-7.90L284.77-7.90L284.77-7.90Q286.08-6.78 288.51-6.78L288.51-6.78L288.51-6.78Q290.94-6.78 293.54-7.90L293.54-7.90L293.54-7.90Q296.13-9.02 297.22-10.82ZM284.16-17.79L284.16-17.79L284.16-17.79Q288.70-17.79 291.33-20.61L291.33-20.61L291.33-20.61Q293.95-23.30 293.95-27.58L293.95-27.58L293.95-27.58Q293.95-29.06 293.41-29.86L293.41-29.86L293.41-29.86Q292.86-30.66 291.78-30.66L291.78-30.66L291.78-30.66Q290.69-30.66 289.76-30.24L289.76-30.24L289.76-30.24Q288.83-29.82 287.87-28.42L287.87-28.42L287.87-28.42Q285.50-25.22 284.16-17.79ZM325.38-17.98L325.38-17.98L325.38-17.98Q327.68-22.08 327.68-26.24L327.68-26.24L327.68-26.24Q327.68-28.99 325.70-28.99L325.70-28.99L325.70-28.99Q324.16-28.99 322.56-26.37L322.56-26.37L322.56-26.37Q320.90-23.74 320.38-20.35L320.38-20.35L317.06 0L303.81 1.28L310.34-32.64L320.90-33.92L319.74-27.46L319.74-27.46Q322.88-33.92 329.92-33.92L329.92-33.92L329.92-33.92Q333.63-33.92 335.65-32L335.65-32L335.65-32Q337.66-30.08 337.66-26.14L337.66-26.14L337.66-26.14Q337.66-22.21 335.07-19.71L335.07-19.71L335.07-19.71Q332.48-17.22 328.06-17.22L328.06-17.22L328.06-17.22Q326.14-17.22 325.38-17.98Z" fill="url(#editing-shiny-gradient2)"></path></g></g><style>text {
  font-size: 64px;
  font-family: Arial Black;
  dominant-baseline: central;
  text-anchor: middle;
}</style></svg>