<svg width="100%" height="100%" xmlns="http://www.w3.org/2000/svg" viewBox="-105.24873046875001 13.9893798828125 710.4974609375 122.021240234375" style="background: rgba(0, 0, 0, 0);" preserveAspectRatio="xMidYMid"><defs><linearGradient id="editing-shiny-gradient" x1="0.04322727117869957" x2="0.9567727288213004" y1="0.2966316784620999" y2="0.7033683215379001" gradientUnits="objectBoundingBox"><stop offset="0.0" stop-color="#ffb200"></stop><stop offset="0.5" stop-color="#e10057"></stop><stop offset="1.0" stop-color="#5A1A80"></stop></linearGradient><linearGradient id="editing-shiny-gradient2" x1="0" x2="0" y1="0" y2="1"><stop offset="0.2" stop-color="#fff" stop-opacity="0.8"></stop><stop offset="0.8" stop-color="#fff" stop-opacity="0"></stop></linearGradient><filter id="editing-shiny2" x="-100%" y="-100%" width="300%" height="300%"><feMorphology operator="erode" radius="2"></feMorphology></filter><filter id="editing-shiny" x="-100%" y="-100%" width="300%" height="300%"><feFlood flood-color="#fff" result="flood"></feFlood><feConvolveMatrix in="SourceGraphic" result="conv" order="8,8" divisor="1" kernelMatrix="0 0 0 0 0 0 0 0 0 0 0 1 1 0 0 0 0 0 0 1 1 0 0 0 0 0 1 0 0 1 0 0 0 0 1 0 0 1 0 0 0 1 0 0 0 0 1 0 0 1 1 0 0 1 1 0 0 0 0 1 1 0 0 0 "></feConvolveMatrix><feOffset dx="0" dy="4" in="conv" result="offset"></feOffset><feComposite operator="in" in="flood" in2="offset" result="comp"></feComposite><feGaussianBlur in="offset" stdDeviation="3" result="shadow"></feGaussianBlur><feColorMatrix in="shadow" type="matrix" values="0.7 0 0 0 0  0 0.7 0 0 0  0 0 0.7 0 0  0 0 0 0.3 0" result="dark-shadow"></feColorMatrix><feOffset dx="0" dy="4" in="dark-shadow" result="offset-shadow"></feOffset><feOffset dx="0" dy="2" in="conv" result="offset-2"></feOffset><feComposite operator="out" in="offset" in2="offset-2" result="edge-diff"></feComposite><feGaussianBlur in="edge-diff" stdDeviation="1" result="edge-blur"></feGaussianBlur><feColorMatrix in="edge-blur" result="edge-shadow" type="matrix" values="0 0 0 0 0  0 0 0 0 0  0 0 0 0 0  0 0 0 0.5 0"></feColorMatrix><feComposite operator="in" in="edge-shadow" in2="offset" result="edge-shadow-in"></feComposite><feOffset dx="0" dy="1" in="edge-shadow-in" result="edge-shadow-final"></feOffset><feMerge result="out"><feMergeNode in="offset-shadow"></feMergeNode><feMergeNode in="comp"></feMergeNode><feMergeNode in="edge-shadow-final"></feMergeNode><feMergeNode in="SourceGraphic"></feMergeNode></feMerge></filter></defs><g filter="url(#editing-shiny)"><g transform="translate(-3.855001211166382, 98.9921875)"><path d="M14.21 0L0.51 0L8.32-42.05L8.32-42.05Q14.66-42.75 23.90-42.75L23.90-42.75L23.90-42.75Q33.15-42.75 37.44-40.06L37.44-40.06L37.44-40.06Q41.73-37.38 41.73-31.97L41.73-31.97L41.73-31.97Q41.73-26.56 38.94-23.17L38.94-23.17L38.94-23.17Q36.16-19.78 31.36-18.69L31.36-18.69L31.36-18.69Q32.45-13.38 34.94-9.09L34.94-9.09L34.94-9.09Q37.25-5.06 39.94-3.78L39.94-3.78L39.94-3.78Q38.98-1.09 37.02 0.10L37.02 0.10L37.02 0.10Q35.07 1.28 32.29 1.28L32.29 1.28L32.29 1.28Q29.50 1.28 27.33-0.35L27.33-0.35L27.33-0.35Q25.15-1.98 23.42-4.99L23.42-4.99L23.42-4.99Q19.78-11.52 19.39-21.82L19.39-21.82L19.84-21.82L19.84-21.82Q24.58-21.95 26.94-24.42L26.94-24.42L26.94-24.42Q29.31-26.88 29.31-32.06L29.31-32.06L29.31-32.06Q29.31-38.53 23.87-38.78L23.87-38.78L22.46-38.78L22.46-38.78Q21.89-38.78 21.57-38.72L21.57-38.72L14.21 0ZM47.46-1.92L47.46-1.92L47.46-1.92Q45.95-3.58 45.28-6.21L45.28-6.21L45.28-6.21Q44.61-8.83 44.61-13.12L44.61-13.12L44.61-13.12Q44.61-17.41 46.08-21.31L46.08-21.31L46.08-21.31Q47.55-25.22 50.24-28.03L50.24-28.03L50.24-28.03Q55.74-33.92 64.83-33.92L64.83-33.92L64.83-33.92Q68.10-33.92 70.46-32.83L70.46-32.83L81.41-33.92L76.67-8.96L76.67-8.96Q76.48-8.19 76.48-6.78L76.48-6.78L76.48-6.78Q76.48-5.38 77.34-4.48L77.34-4.48L77.34-4.48Q78.21-3.58 79.49-3.46L79.49-3.46L79.49-3.46Q78.85-1.28 76.51 0L76.51 0L76.51 0Q74.18 1.28 71.55 1.28L71.55 1.28L71.55 1.28Q68.93 1.28 67.17 0.29L67.17 0.29L67.17 0.29Q65.41-0.70 64.90-2.37L64.90-2.37L64.90-2.37Q63.87-0.77 61.70 0.26L61.70 0.26L61.70 0.26Q59.52 1.28 56.61 1.28L56.61 1.28L56.61 1.28Q53.70 1.28 51.33 0.51L51.33 0.51L51.33 0.51Q48.96-0.26 47.46-1.92ZM60.96-27.90L60.96-27.90L60.96-27.90Q60.22-26.75 59.58-24.80L59.58-24.80L59.58-24.80Q58.94-22.85 57.89-17.63L57.89-17.63L57.89-17.63Q56.83-12.42 56.83-8.70L56.83-8.70L56.83-8.70Q56.83-4.99 57.41-3.90L57.41-3.90L57.41-3.90Q57.98-2.82 59.01-2.82L59.01-2.82L59.01-2.82Q61.06-2.82 62.56-4.77L62.56-4.77L62.56-4.77Q64.06-6.72 64.64-10.18L64.64-10.18L68.03-28.93L68.03-28.93Q66.69-30.08 65.12-30.08L65.12-30.08L65.12-30.08Q63.55-30.08 62.62-29.57L62.62-29.57L62.62-29.57Q61.70-29.06 60.96-27.90ZM100.22-3.52L100.22-3.52L100.22-3.52Q98.24 1.28 91.90 1.28L91.90 1.28L91.90 1.28Q88.64 1.28 86.59-0.96L86.59-0.96L86.59-0.96Q84.86-2.94 84.86-4.93L84.86-4.93L84.86-4.93Q84.86-10.11 87.23-20.22L87.23-20.22L89.60-32.64L102.59-33.92L98.69-13.70L98.69-13.70Q97.60-8.96 97.60-7.30L97.60-7.30L97.60-7.30Q97.60-3.65 100.22-3.52ZM90.75-41.54L90.75-41.54L90.75-41.54Q90.75-44.03 92.83-45.38L92.83-45.38L92.83-45.38Q94.91-46.72 97.92-46.72L97.92-46.72L97.92-46.72Q100.93-46.72 102.75-45.38L102.75-45.38L102.75-45.38Q104.58-44.03 104.58-41.54L104.58-41.54L104.58-41.54Q104.58-39.04 102.56-37.76L102.56-37.76L102.56-37.76Q100.54-36.48 97.54-36.48L97.54-36.48L97.54-36.48Q94.53-36.48 92.64-37.76L92.64-37.76L92.64-37.76Q90.75-39.04 90.75-41.54ZM132.74 1.28L132.74 1.28L132.74 1.28Q124.99 1.28 124.99-4.74L124.99-4.74L124.99-4.74Q125.06-6.40 125.57-9.22L125.57-9.22L126.72-15.10L126.72-15.10Q128.45-23.42 128.45-25.28L128.45-25.28L128.45-25.28Q128.45-28.99 126.27-28.99L126.27-28.99L126.27-28.99Q122.62-28.99 120.70-19.46L120.70-19.46L116.93 0L104.06 1.28L110.72-32.70L121.22-33.92L120.19-27.65L120.19-27.65Q123.20-33.92 132.42-33.92L132.42-33.92L132.42-33.92Q136.90-33.92 138.78-32.03L138.78-32.03L138.78-32.03Q140.67-30.14 140.67-25.92L140.67-25.92L140.67-25.92Q140.67-21.95 138.62-12.67L138.62-12.67L138.62-12.67Q137.66-8.51 137.66-6.94L137.66-6.94L137.66-6.94Q137.66-5.38 138.53-4.48L138.53-4.48L138.53-4.48Q139.39-3.58 140.67-3.46L140.67-3.46L140.67-3.46Q140.03-1.28 137.82 0L137.82 0L137.82 0Q135.62 1.28 132.74 1.28ZM144.96-3.07L144.96-3.07L152.90-44.80L165.89-46.08L163.90-36.29L163.90-36.29Q163.20-33.28 162.30-31.17L162.30-31.17L162.30-31.17Q163.71-32.96 166.78-33.66L166.78-33.66L166.78-33.66Q167.68-33.92 168.77-33.92L168.77-33.92L168.77-33.92Q174.72-33.92 177.98-30.30L177.98-30.30L177.98-30.30Q181.25-26.69 181.25-19.71L181.25-19.71L181.25-19.71Q181.25-10.62 176.06-4.93L176.06-4.93L176.06-4.93Q170.50 1.28 160.38 1.28L160.38 1.28L160.38 1.28Q153.41 1.28 148.16-1.02L148.16-1.02L148.16-1.02Q146.30-1.86 144.96-3.07ZM161.22-22.40L157.82-3.65L157.82-3.65Q159.17-2.50 160.83-2.50L160.83-2.50L160.83-2.50Q162.50-2.50 163.46-3.14L163.46-3.14L163.46-3.14Q164.42-3.78 165.12-5.06L165.12-5.06L165.12-5.06Q167.04-8.51 168.58-19.07L168.58-19.07L168.58-19.07Q169.02-22.08 169.02-25.09L169.02-25.09L169.02-25.09Q169.02-28.10 168.35-29.06L168.35-29.06L168.35-29.06Q167.68-30.02 166.40-30.02L166.40-30.02L166.40-30.02Q162.50-30.02 161.22-22.40L161.22-22.40ZM199.04 1.28L199.04 1.28L199.04 1.28Q184.96 1.28 184.96-11.97L184.96-11.97L184.96-11.97Q184.96-21.38 190.14-27.46L190.14-27.46L190.14-27.46Q195.65-33.92 205.18-33.92L205.18-33.92L205.18-33.92Q212.10-33.92 215.62-30.72L215.62-30.72L215.62-30.72Q219.14-27.52 219.14-20.80L219.14-20.80L219.14-20.80Q219.14-10.56 213.63-4.61L213.63-4.61L213.63-4.61Q208.26 1.28 199.04 1.28ZM200.70-26.56L200.70-26.56L200.70-26.56Q199.94-24.83 199.33-22.24L199.33-22.24L199.33-22.24Q198.72-19.65 197.95-15.55L197.95-15.55L197.95-15.55Q197.18-11.46 197.18-6.40L197.18-6.40L197.18-6.40Q197.18-4.74 197.73-3.65L197.73-3.65L197.73-3.65Q198.27-2.56 199.74-2.56L199.74-2.56L199.74-2.56Q201.22-2.56 202.14-3.26L202.14-3.26L202.14-3.26Q203.07-3.97 203.78-5.63L203.78-5.63L203.78-5.63Q205.06-8.58 206.08-14.05L206.08-14.05L206.08-14.05Q207.10-19.52 207.20-21.89L207.20-21.89L207.20-21.89Q207.30-24.26 207.30-26.02L207.30-26.02L207.30-26.02Q207.30-27.78 206.78-28.93L206.78-28.93L206.78-28.93Q206.27-30.08 204.83-30.08L204.83-30.08L204.83-30.08Q203.39-30.08 202.43-29.18L202.43-29.18L202.43-29.18Q201.47-28.29 200.70-26.56ZM270.66-10.69L270.66-10.69Q266.43-4.86 262.37-1.79L262.37-1.79L262.37-1.79Q258.30 1.28 254.11 1.28L254.11 1.28L254.11 1.28Q249.92 1.28 248.45 0.45L248.45 0.45L248.45-13.63L248.45-13.63Q244.80-3.90 238.27-0.13L238.27-0.13L238.27-0.13Q235.90 1.28 233.66 1.28L233.66 1.28L233.66 1.28Q229.38 1.28 227.52 0.45L227.52 0.45L227.52 0.45Q227.07-14.21 226.69-18.27L226.69-18.27L226.69-18.27Q226.30-22.34 225.98-24.83L225.98-24.83L225.98-24.83Q225.34-29.82 223.17-31.87L223.17-31.87L223.17-31.87Q225.92-33.92 229.76-33.92L229.76-33.92L229.76-33.92Q237.18-33.92 238.21-24.70L238.21-24.70L238.21-24.70Q238.46-22.53 238.46-20.22L238.46-20.22L238.46-20.22Q238.46-16.77 237.70-4.74L237.70-4.74L237.70-4.74Q239.23-5.44 240.86-7.97L240.86-7.97L240.86-7.97Q242.50-10.50 243.84-13.95L243.84-13.95L243.84-13.95Q246.85-21.95 246.85-28.86L246.85-28.86L246.85-28.86Q246.85-29.95 246.56-31.10L246.56-31.10L246.56-31.10Q246.27-32.26 245.95-32.58L245.95-32.58L245.95-32.58Q248.19-33.92 251.62-33.92L251.62-33.92L251.62-33.92Q255.04-33.92 256.67-31.58L256.67-31.58L256.67-31.58Q258.30-29.25 258.75-24.96L258.75-24.96L258.75-24.96Q259.26-19.52 259.26-16.26L259.26-16.26L259.26-16.26Q259.26-11.71 258.82-4.99L258.82-4.99L258.82-4.99Q262.02-7.30 264.64-14.85L264.64-14.85L264.64-14.85Q267.26-22.40 267.26-27.78L267.26-27.78L267.26-27.78Q267.26-30.14 266.88-31.55L266.88-31.55L266.88-31.55Q268.99-33.92 272.64-33.92L272.64-33.92L272.64-33.92Q274.88-33.92 276.51-32.70L276.51-32.70L276.51-32.70Q278.14-31.49 278.14-29.22L278.14-29.22L278.14-29.22Q278.14-26.94 277.47-24.51L277.47-24.51L277.47-24.51Q276.80-22.08 275.71-19.58L275.71-19.58L275.71-19.58Q273.60-14.59 270.66-10.69L270.66-10.69ZM306.18 0L292.48 0L300.29-42.05L300.29-42.05Q306.62-42.75 315.87-42.75L315.87-42.75L315.87-42.75Q325.12-42.75 329.41-40.06L329.41-40.06L329.41-40.06Q333.70-37.38 333.70-31.97L333.70-31.97L333.70-31.97Q333.70-26.56 330.91-23.17L330.91-23.17L330.91-23.17Q328.13-19.78 323.33-18.69L323.33-18.69L323.33-18.69Q324.42-13.38 326.91-9.09L326.91-9.09L326.91-9.09Q329.22-5.06 331.90-3.78L331.90-3.78L331.90-3.78Q330.94-1.09 328.99 0.10L328.99 0.10L328.99 0.10Q327.04 1.28 324.26 1.28L324.26 1.28L324.26 1.28Q321.47 1.28 319.30-0.35L319.30-0.35L319.30-0.35Q317.12-1.98 315.39-4.99L315.39-4.99L315.39-4.99Q311.74-11.52 311.36-21.82L311.36-21.82L311.81-21.82L311.81-21.82Q316.54-21.95 318.91-24.42L318.91-24.42L318.91-24.42Q321.28-26.88 321.28-32.06L321.28-32.06L321.28-32.06Q321.28-38.53 315.84-38.78L315.84-38.78L314.43-38.78L314.43-38.78Q313.86-38.78 313.54-38.72L313.54-38.72L306.18 0ZM362.56-10.82L362.56-10.82L362.56-10.82Q364.16-9.73 364.16-7.33L364.16-7.33L364.16-7.33Q364.16-4.93 362.94-3.39L362.94-3.39L362.94-3.39Q361.73-1.86 359.74-0.83L359.74-0.83L359.74-0.83Q355.65 1.28 351.23 1.28L351.23 1.28L351.23 1.28Q346.82 1.28 344.22 0.32L344.22 0.32L344.22 0.32Q341.63-0.64 339.90-2.43L339.90-2.43L339.90-2.43Q336.51-5.82 336.51-12.03L336.51-12.03L336.51-12.03Q336.51-21.70 341.76-27.58L341.76-27.58L341.76-27.58Q347.39-33.92 357.18-33.92L357.18-33.92L357.18-33.92Q363.26-33.92 366.27-31.36L366.27-31.36L366.27-31.36Q368.51-29.44 368.51-26.30L368.51-26.30L368.51-26.30Q368.51-15.04 349.06-15.04L349.06-15.04L349.06-15.04Q348.80-13.38 348.80-11.97L348.80-11.97L348.80-11.97Q348.80-9.02 350.11-7.90L350.11-7.90L350.11-7.90Q351.42-6.78 353.86-6.78L353.86-6.78L353.86-6.78Q356.29-6.78 358.88-7.90L358.88-7.90L358.88-7.90Q361.47-9.02 362.56-10.82ZM349.50-17.79L349.50-17.79L349.50-17.79Q354.05-17.79 356.67-20.61L356.67-20.61L356.67-20.61Q359.30-23.30 359.30-27.58L359.30-27.58L359.30-27.58Q359.30-29.06 358.75-29.86L358.75-29.86L358.75-29.86Q358.21-30.66 357.12-30.66L357.12-30.66L357.12-30.66Q356.03-30.66 355.10-30.24L355.10-30.24L355.10-30.24Q354.18-29.82 353.22-28.42L353.22-28.42L353.22-28.42Q350.85-25.22 349.50-17.79ZM389.82-22.46L389.82-22.46L389.82-22.46Q390.72-24.83 390.72-26.88L390.72-26.88L390.72-26.88Q390.72-30.66 387.65-30.66L387.65-30.66L387.65-30.66Q386.05-30.66 384.74-29.22L384.74-29.22L384.74-29.22Q383.42-27.78 383.42-25.98L383.42-25.98L383.42-25.98Q383.42-24.70 384.45-23.68L384.45-23.68L384.45-23.68Q385.92-22.27 389.70-19.97L389.70-19.97L389.70-19.97Q393.47-17.66 394.91-15.78L394.91-15.78L394.91-15.78Q396.35-13.89 396.35-11.30L396.35-11.30L396.35-11.30Q396.35-8.70 395.10-6.34L395.10-6.34L395.10-6.34Q393.86-3.97 391.62-2.30L391.62-2.30L391.62-2.30Q386.82 1.28 379.14 1.28L379.14 1.28L379.14 1.28Q374.98 1.28 371.78-0.90L371.78-0.90L371.78-0.90Q368.58-3.01 368.58-5.50L368.58-5.50L368.58-5.50Q368.58-8 370.40-9.47L370.40-9.47L370.40-9.47Q372.22-10.94 374.91-10.94L374.91-10.94L374.91-10.94Q377.60-10.94 379.26-9.92L379.26-9.92L379.26-9.92Q378.43-7.81 378.43-6.40L378.43-6.40L378.43-6.40Q378.43-2.18 382.02-2.18L382.02-2.18L382.02-2.18Q383.55-2.18 384.58-3.14L384.58-3.14L384.58-3.14Q385.60-4.10 385.60-5.76L385.60-5.76L385.60-5.76Q385.60-9.02 380.10-12.48L380.10-12.48L380.10-12.48Q375.62-15.42 374.59-16.58L374.59-16.58L374.59-16.58Q372.86-18.62 372.86-21.18L372.86-21.18L372.86-21.18Q372.86-23.74 374.08-26.18L374.08-26.18L374.08-26.18Q375.30-28.61 377.54-30.34L377.54-30.34L377.54-30.34Q382.21-33.92 390.34-33.92L390.34-33.92L390.34-33.92Q394.50-33.92 396.96-32.26L396.96-32.26L396.96-32.26Q399.42-30.59 399.42-27.78L399.42-27.78L399.42-27.78Q399.42-24.96 397.73-23.36L397.73-23.36L397.73-23.36Q396.03-21.76 392.96-21.76L392.96-21.76L392.96-21.76Q390.85-21.76 389.82-22.46ZM433.22-26.62L433.22-26.62L433.22-26.62Q433.22-23.94 430.98-22.27L430.98-22.27L430.98-22.27Q428.74-20.61 425.09-20.61L425.09-20.61L425.09-20.61Q423.55-20.61 422.66-21.06L422.66-21.06L422.66-21.06Q423.36-22.72 423.58-24.80L423.58-24.80L423.58-24.80Q423.81-26.88 423.81-27.46L423.81-27.46L423.81-27.46Q423.81-30.14 421.95-30.14L421.95-30.14L421.95-30.14Q420.67-30.14 419.23-28.54L419.23-28.54L419.23-28.54Q417.79-26.94 416.58-24.45L416.58-24.45L416.58-24.45Q413.89-18.69 413.89-12.86L413.89-12.86L413.89-12.86Q413.89-9.66 415.10-8.22L415.10-8.22L415.10-8.22Q416.32-6.78 419.01-6.78L419.01-6.78L419.01-6.78Q422.72-6.78 425.66-9.86L425.66-9.86L425.66-9.86Q426.50-10.82 426.94-11.90L426.94-11.90L426.94-11.90Q429.38-10.62 429.38-7.10L429.38-7.10L429.38-7.10Q429.38-3.52 425.41-1.15L425.41-1.15L425.41-1.15Q421.31 1.28 414.78 1.28L414.78 1.28L414.78 1.28Q401.79 1.28 401.79-12.48L401.79-12.48L401.79-12.48Q401.79-22.53 407.49-28.29L407.49-28.29L407.49-28.29Q412.99-33.92 423.10-33.92L423.10-33.92L423.10-33.92Q433.22-33.92 433.22-26.62ZM455.49-2.69L455.49-2.69L455.49-2.69Q452.42 1.28 444.80 1.28L444.80 1.28L444.80 1.28Q440.83 1.28 437.95-1.12L437.95-1.12L437.95-1.12Q435.07-3.52 435.07-6.98L435.07-6.98L435.07-6.98Q435.07-8.90 435.26-9.86L435.26-9.86L439.55-32.64L452.54-33.92L447.87-9.22L447.87-9.22Q447.62-7.81 447.62-6.98L447.62-6.98L447.62-6.98Q447.62-3.26 449.86-3.26L449.86-3.26L449.86-3.26Q452.35-3.26 454.14-6.66L454.14-6.66L454.14-6.66Q454.72-7.74 454.98-9.15L454.98-9.15L459.52-32.64L472.13-33.92L467.39-8.96L467.39-8.96Q467.20-8 467.20-6.98L467.20-6.98L467.20-6.98Q467.20-5.95 467.78-4.83L467.78-4.83L467.78-4.83Q468.35-3.71 470.21-3.46L470.21-3.46L470.21-3.46Q469.82-1.92 468.48-0.90L468.48-0.90L468.48-0.90Q465.66 1.28 462.62 1.28L462.62 1.28L462.62 1.28Q459.58 1.28 457.79 0.19L457.79 0.19L457.79 0.19Q456-0.90 455.49-2.69ZM501.25-10.82L501.25-10.82L501.25-10.82Q502.85-9.73 502.85-7.33L502.85-7.33L502.85-7.33Q502.85-4.93 501.63-3.39L501.63-3.39L501.63-3.39Q500.42-1.86 498.43-0.83L498.43-0.83L498.43-0.83Q494.34 1.28 489.92 1.28L489.92 1.28L489.92 1.28Q485.50 1.28 482.91 0.32L482.91 0.32L482.91 0.32Q480.32-0.64 478.59-2.43L478.59-2.43L478.59-2.43Q475.20-5.82 475.20-12.03L475.20-12.03L475.20-12.03Q475.20-21.70 480.45-27.58L480.45-27.58L480.45-27.58Q486.08-33.92 495.87-33.92L495.87-33.92L495.87-33.92Q501.95-33.92 504.96-31.36L504.96-31.36L504.96-31.36Q507.20-29.44 507.20-26.30L507.20-26.30L507.20-26.30Q507.20-15.04 487.74-15.04L487.74-15.04L487.74-15.04Q487.49-13.38 487.49-11.97L487.49-11.97L487.49-11.97Q487.49-9.02 488.80-7.90L488.80-7.90L488.80-7.90Q490.11-6.78 492.54-6.78L492.54-6.78L492.54-6.78Q494.98-6.78 497.57-7.90L497.57-7.90L497.57-7.90Q500.16-9.02 501.25-10.82ZM488.19-17.79L488.19-17.79L488.19-17.79Q492.74-17.79 495.36-20.61L495.36-20.61L495.36-20.61Q497.98-23.30 497.98-27.58L497.98-27.58L497.98-27.58Q497.98-29.06 497.44-29.86L497.44-29.86L497.44-29.86Q496.90-30.66 495.81-30.66L495.81-30.66L495.81-30.66Q494.72-30.66 493.79-30.24L493.79-30.24L493.79-30.24Q492.86-29.82 491.90-28.42L491.90-28.42L491.90-28.42Q489.54-25.22 488.19-17.79Z" fill="url(#editing-shiny-gradient)"></path></g></g><g filter="url(#editing-shiny2)"><g transform="translate(-3.855001211166382, 99)"><path d="M14.21 0L0.51 0L8.32-42.05L8.32-42.05Q14.66-42.75 23.90-42.75L23.90-42.75L23.90-42.75Q33.15-42.75 37.44-40.06L37.44-40.06L37.44-40.06Q41.73-37.38 41.73-31.97L41.73-31.97L41.73-31.97Q41.73-26.56 38.94-23.17L38.94-23.17L38.94-23.17Q36.16-19.78 31.36-18.69L31.36-18.69L31.36-18.69Q32.45-13.38 34.94-9.09L34.94-9.09L34.94-9.09Q37.25-5.06 39.94-3.78L39.94-3.78L39.94-3.78Q38.98-1.09 37.02 0.10L37.02 0.10L37.02 0.10Q35.07 1.28 32.29 1.28L32.29 1.28L32.29 1.28Q29.50 1.28 27.33-0.35L27.33-0.35L27.33-0.35Q25.15-1.98 23.42-4.99L23.42-4.99L23.42-4.99Q19.78-11.52 19.39-21.82L19.39-21.82L19.84-21.82L19.84-21.82Q24.58-21.95 26.94-24.42L26.94-24.42L26.94-24.42Q29.31-26.88 29.31-32.06L29.31-32.06L29.31-32.06Q29.31-38.53 23.87-38.78L23.87-38.78L22.46-38.78L22.46-38.78Q21.89-38.78 21.57-38.72L21.57-38.72L14.21 0ZM47.46-1.92L47.46-1.92L47.46-1.92Q45.95-3.58 45.28-6.21L45.28-6.21L45.28-6.21Q44.61-8.83 44.61-13.12L44.61-13.12L44.61-13.12Q44.61-17.41 46.08-21.31L46.08-21.31L46.08-21.31Q47.55-25.22 50.24-28.03L50.24-28.03L50.24-28.03Q55.74-33.92 64.83-33.92L64.83-33.92L64.83-33.92Q68.10-33.92 70.46-32.83L70.46-32.83L81.41-33.92L76.67-8.96L76.67-8.96Q76.48-8.19 76.48-6.78L76.48-6.78L76.48-6.78Q76.48-5.38 77.34-4.48L77.34-4.48L77.34-4.48Q78.21-3.58 79.49-3.46L79.49-3.46L79.49-3.46Q78.85-1.28 76.51 0L76.51 0L76.51 0Q74.18 1.28 71.55 1.28L71.55 1.28L71.55 1.28Q68.93 1.28 67.17 0.29L67.17 0.29L67.17 0.29Q65.41-0.70 64.90-2.37L64.90-2.37L64.90-2.37Q63.87-0.77 61.70 0.26L61.70 0.26L61.70 0.26Q59.52 1.28 56.61 1.28L56.61 1.28L56.61 1.28Q53.70 1.28 51.33 0.51L51.33 0.51L51.33 0.51Q48.96-0.26 47.46-1.92ZM60.96-27.90L60.96-27.90L60.96-27.90Q60.22-26.75 59.58-24.80L59.58-24.80L59.58-24.80Q58.94-22.85 57.89-17.63L57.89-17.63L57.89-17.63Q56.83-12.42 56.83-8.70L56.83-8.70L56.83-8.70Q56.83-4.99 57.41-3.90L57.41-3.90L57.41-3.90Q57.98-2.82 59.01-2.82L59.01-2.82L59.01-2.82Q61.06-2.82 62.56-4.77L62.56-4.77L62.56-4.77Q64.06-6.72 64.64-10.18L64.64-10.18L68.03-28.93L68.03-28.93Q66.69-30.08 65.12-30.08L65.12-30.08L65.12-30.08Q63.55-30.08 62.62-29.57L62.62-29.57L62.62-29.57Q61.70-29.06 60.96-27.90ZM100.22-3.52L100.22-3.52L100.22-3.52Q98.24 1.28 91.90 1.28L91.90 1.28L91.90 1.28Q88.64 1.28 86.59-0.96L86.59-0.96L86.59-0.96Q84.86-2.94 84.86-4.93L84.86-4.93L84.86-4.93Q84.86-10.11 87.23-20.22L87.23-20.22L89.60-32.64L102.59-33.92L98.69-13.70L98.69-13.70Q97.60-8.96 97.60-7.30L97.60-7.30L97.60-7.30Q97.60-3.65 100.22-3.52ZM90.75-41.54L90.75-41.54L90.75-41.54Q90.75-44.03 92.83-45.38L92.83-45.38L92.83-45.38Q94.91-46.72 97.92-46.72L97.92-46.72L97.92-46.72Q100.93-46.72 102.75-45.38L102.75-45.38L102.75-45.38Q104.58-44.03 104.58-41.54L104.58-41.54L104.58-41.54Q104.58-39.04 102.56-37.76L102.56-37.76L102.56-37.76Q100.54-36.48 97.54-36.48L97.54-36.48L97.54-36.48Q94.53-36.48 92.64-37.76L92.64-37.76L92.64-37.76Q90.75-39.04 90.75-41.54ZM132.74 1.28L132.74 1.28L132.74 1.28Q124.99 1.28 124.99-4.74L124.99-4.74L124.99-4.74Q125.06-6.40 125.57-9.22L125.57-9.22L126.72-15.10L126.72-15.10Q128.45-23.42 128.45-25.28L128.45-25.28L128.45-25.28Q128.45-28.99 126.27-28.99L126.27-28.99L126.27-28.99Q122.62-28.99 120.70-19.46L120.70-19.46L116.93 0L104.06 1.28L110.72-32.70L121.22-33.92L120.19-27.65L120.19-27.65Q123.20-33.92 132.42-33.92L132.42-33.92L132.42-33.92Q136.90-33.92 138.78-32.03L138.78-32.03L138.78-32.03Q140.67-30.14 140.67-25.92L140.67-25.92L140.67-25.92Q140.67-21.95 138.62-12.67L138.62-12.67L138.62-12.67Q137.66-8.51 137.66-6.94L137.66-6.94L137.66-6.94Q137.66-5.38 138.53-4.48L138.53-4.48L138.53-4.48Q139.39-3.58 140.67-3.46L140.67-3.46L140.67-3.46Q140.03-1.28 137.82 0L137.82 0L137.82 0Q135.62 1.28 132.74 1.28ZM144.96-3.07L144.96-3.07L152.90-44.80L165.89-46.08L163.90-36.29L163.90-36.29Q163.20-33.28 162.30-31.17L162.30-31.17L162.30-31.17Q163.71-32.96 166.78-33.66L166.78-33.66L166.78-33.66Q167.68-33.92 168.77-33.92L168.77-33.92L168.77-33.92Q174.72-33.92 177.98-30.30L177.98-30.30L177.98-30.30Q181.25-26.69 181.25-19.71L181.25-19.71L181.25-19.71Q181.25-10.62 176.06-4.93L176.06-4.93L176.06-4.93Q170.50 1.28 160.38 1.28L160.38 1.28L160.38 1.28Q153.41 1.28 148.16-1.02L148.16-1.02L148.16-1.02Q146.30-1.86 144.96-3.07ZM161.22-22.40L157.82-3.65L157.82-3.65Q159.17-2.50 160.83-2.50L160.83-2.50L160.83-2.50Q162.50-2.50 163.46-3.14L163.46-3.14L163.46-3.14Q164.42-3.78 165.12-5.06L165.12-5.06L165.12-5.06Q167.04-8.51 168.58-19.07L168.58-19.07L168.58-19.07Q169.02-22.08 169.02-25.09L169.02-25.09L169.02-25.09Q169.02-28.10 168.35-29.06L168.35-29.06L168.35-29.06Q167.68-30.02 166.40-30.02L166.40-30.02L166.40-30.02Q162.50-30.02 161.22-22.40L161.22-22.40ZM199.04 1.28L199.04 1.28L199.04 1.28Q184.96 1.28 184.96-11.97L184.96-11.97L184.96-11.97Q184.96-21.38 190.14-27.46L190.14-27.46L190.14-27.46Q195.65-33.92 205.18-33.92L205.18-33.92L205.18-33.92Q212.10-33.92 215.62-30.72L215.62-30.72L215.62-30.72Q219.14-27.52 219.14-20.80L219.14-20.80L219.14-20.80Q219.14-10.56 213.63-4.61L213.63-4.61L213.63-4.61Q208.26 1.28 199.04 1.28ZM200.70-26.56L200.70-26.56L200.70-26.56Q199.94-24.83 199.33-22.24L199.33-22.24L199.33-22.24Q198.72-19.65 197.95-15.55L197.95-15.55L197.95-15.55Q197.18-11.46 197.18-6.40L197.18-6.40L197.18-6.40Q197.18-4.74 197.73-3.65L197.73-3.65L197.73-3.65Q198.27-2.56 199.74-2.56L199.74-2.56L199.74-2.56Q201.22-2.56 202.14-3.26L202.14-3.26L202.14-3.26Q203.07-3.97 203.78-5.63L203.78-5.63L203.78-5.63Q205.06-8.58 206.08-14.05L206.08-14.05L206.08-14.05Q207.10-19.52 207.20-21.89L207.20-21.89L207.20-21.89Q207.30-24.26 207.30-26.02L207.30-26.02L207.30-26.02Q207.30-27.78 206.78-28.93L206.78-28.93L206.78-28.93Q206.27-30.08 204.83-30.08L204.83-30.08L204.83-30.08Q203.39-30.08 202.43-29.18L202.43-29.18L202.43-29.18Q201.47-28.29 200.70-26.56ZM270.66-10.69L270.66-10.69Q266.43-4.86 262.37-1.79L262.37-1.79L262.37-1.79Q258.30 1.28 254.11 1.28L254.11 1.28L254.11 1.28Q249.92 1.28 248.45 0.45L248.45 0.45L248.45-13.63L248.45-13.63Q244.80-3.90 238.27-0.13L238.27-0.13L238.27-0.13Q235.90 1.28 233.66 1.28L233.66 1.28L233.66 1.28Q229.38 1.28 227.52 0.45L227.52 0.45L227.52 0.45Q227.07-14.21 226.69-18.27L226.69-18.27L226.69-18.27Q226.30-22.34 225.98-24.83L225.98-24.83L225.98-24.83Q225.34-29.82 223.17-31.87L223.17-31.87L223.17-31.87Q225.92-33.92 229.76-33.92L229.76-33.92L229.76-33.92Q237.18-33.92 238.21-24.70L238.21-24.70L238.21-24.70Q238.46-22.53 238.46-20.22L238.46-20.22L238.46-20.22Q238.46-16.77 237.70-4.74L237.70-4.74L237.70-4.74Q239.23-5.44 240.86-7.97L240.86-7.97L240.86-7.97Q242.50-10.50 243.84-13.95L243.84-13.95L243.84-13.95Q246.85-21.95 246.85-28.86L246.85-28.86L246.85-28.86Q246.85-29.95 246.56-31.10L246.56-31.10L246.56-31.10Q246.27-32.26 245.95-32.58L245.95-32.58L245.95-32.58Q248.19-33.92 251.62-33.92L251.62-33.92L251.62-33.92Q255.04-33.92 256.67-31.58L256.67-31.58L256.67-31.58Q258.30-29.25 258.75-24.96L258.75-24.96L258.75-24.96Q259.26-19.52 259.26-16.26L259.26-16.26L259.26-16.26Q259.26-11.71 258.82-4.99L258.82-4.99L258.82-4.99Q262.02-7.30 264.64-14.85L264.64-14.85L264.64-14.85Q267.26-22.40 267.26-27.78L267.26-27.78L267.26-27.78Q267.26-30.14 266.88-31.55L266.88-31.55L266.88-31.55Q268.99-33.92 272.64-33.92L272.64-33.92L272.64-33.92Q274.88-33.92 276.51-32.70L276.51-32.70L276.51-32.70Q278.14-31.49 278.14-29.22L278.14-29.22L278.14-29.22Q278.14-26.94 277.47-24.51L277.47-24.51L277.47-24.51Q276.80-22.08 275.71-19.58L275.71-19.58L275.71-19.58Q273.60-14.59 270.66-10.69L270.66-10.69ZM306.18 0L292.48 0L300.29-42.05L300.29-42.05Q306.62-42.75 315.87-42.75L315.87-42.75L315.87-42.75Q325.12-42.75 329.41-40.06L329.41-40.06L329.41-40.06Q333.70-37.38 333.70-31.97L333.70-31.97L333.70-31.97Q333.70-26.56 330.91-23.17L330.91-23.17L330.91-23.17Q328.13-19.78 323.33-18.69L323.33-18.69L323.33-18.69Q324.42-13.38 326.91-9.09L326.91-9.09L326.91-9.09Q329.22-5.06 331.90-3.78L331.90-3.78L331.90-3.78Q330.94-1.09 328.99 0.10L328.99 0.10L328.99 0.10Q327.04 1.28 324.26 1.28L324.26 1.28L324.26 1.28Q321.47 1.28 319.30-0.35L319.30-0.35L319.30-0.35Q317.12-1.98 315.39-4.99L315.39-4.99L315.39-4.99Q311.74-11.52 311.36-21.82L311.36-21.82L311.81-21.82L311.81-21.82Q316.54-21.95 318.91-24.42L318.91-24.42L318.91-24.42Q321.28-26.88 321.28-32.06L321.28-32.06L321.28-32.06Q321.28-38.53 315.84-38.78L315.84-38.78L314.43-38.78L314.43-38.78Q313.86-38.78 313.54-38.72L313.54-38.72L306.18 0ZM362.56-10.82L362.56-10.82L362.56-10.82Q364.16-9.73 364.16-7.33L364.16-7.33L364.16-7.33Q364.16-4.93 362.94-3.39L362.94-3.39L362.94-3.39Q361.73-1.86 359.74-0.83L359.74-0.83L359.74-0.83Q355.65 1.28 351.23 1.28L351.23 1.28L351.23 1.28Q346.82 1.28 344.22 0.32L344.22 0.32L344.22 0.32Q341.63-0.64 339.90-2.43L339.90-2.43L339.90-2.43Q336.51-5.82 336.51-12.03L336.51-12.03L336.51-12.03Q336.51-21.70 341.76-27.58L341.76-27.58L341.76-27.58Q347.39-33.92 357.18-33.92L357.18-33.92L357.18-33.92Q363.26-33.92 366.27-31.36L366.27-31.36L366.27-31.36Q368.51-29.44 368.51-26.30L368.51-26.30L368.51-26.30Q368.51-15.04 349.06-15.04L349.06-15.04L349.06-15.04Q348.80-13.38 348.80-11.97L348.80-11.97L348.80-11.97Q348.80-9.02 350.11-7.90L350.11-7.90L350.11-7.90Q351.42-6.78 353.86-6.78L353.86-6.78L353.86-6.78Q356.29-6.78 358.88-7.90L358.88-7.90L358.88-7.90Q361.47-9.02 362.56-10.82ZM349.50-17.79L349.50-17.79L349.50-17.79Q354.05-17.79 356.67-20.61L356.67-20.61L356.67-20.61Q359.30-23.30 359.30-27.58L359.30-27.58L359.30-27.58Q359.30-29.06 358.75-29.86L358.75-29.86L358.75-29.86Q358.21-30.66 357.12-30.66L357.12-30.66L357.12-30.66Q356.03-30.66 355.10-30.24L355.10-30.24L355.10-30.24Q354.18-29.82 353.22-28.42L353.22-28.42L353.22-28.42Q350.85-25.22 349.50-17.79ZM389.82-22.46L389.82-22.46L389.82-22.46Q390.72-24.83 390.72-26.88L390.72-26.88L390.72-26.88Q390.72-30.66 387.65-30.66L387.65-30.66L387.65-30.66Q386.05-30.66 384.74-29.22L384.74-29.22L384.74-29.22Q383.42-27.78 383.42-25.98L383.42-25.98L383.42-25.98Q383.42-24.70 384.45-23.68L384.45-23.68L384.45-23.68Q385.92-22.27 389.70-19.97L389.70-19.97L389.70-19.97Q393.47-17.66 394.91-15.78L394.91-15.78L394.91-15.78Q396.35-13.89 396.35-11.30L396.35-11.30L396.35-11.30Q396.35-8.70 395.10-6.34L395.10-6.34L395.10-6.34Q393.86-3.97 391.62-2.30L391.62-2.30L391.62-2.30Q386.82 1.28 379.14 1.28L379.14 1.28L379.14 1.28Q374.98 1.28 371.78-0.90L371.78-0.90L371.78-0.90Q368.58-3.01 368.58-5.50L368.58-5.50L368.58-5.50Q368.58-8 370.40-9.47L370.40-9.47L370.40-9.47Q372.22-10.94 374.91-10.94L374.91-10.94L374.91-10.94Q377.60-10.94 379.26-9.92L379.26-9.92L379.26-9.92Q378.43-7.81 378.43-6.40L378.43-6.40L378.43-6.40Q378.43-2.18 382.02-2.18L382.02-2.18L382.02-2.18Q383.55-2.18 384.58-3.14L384.58-3.14L384.58-3.14Q385.60-4.10 385.60-5.76L385.60-5.76L385.60-5.76Q385.60-9.02 380.10-12.48L380.10-12.48L380.10-12.48Q375.62-15.42 374.59-16.58L374.59-16.58L374.59-16.58Q372.86-18.62 372.86-21.18L372.86-21.18L372.86-21.18Q372.86-23.74 374.08-26.18L374.08-26.18L374.08-26.18Q375.30-28.61 377.54-30.34L377.54-30.34L377.54-30.34Q382.21-33.92 390.34-33.92L390.34-33.92L390.34-33.92Q394.50-33.92 396.96-32.26L396.96-32.26L396.96-32.26Q399.42-30.59 399.42-27.78L399.42-27.78L399.42-27.78Q399.42-24.96 397.73-23.36L397.73-23.36L397.73-23.36Q396.03-21.76 392.96-21.76L392.96-21.76L392.96-21.76Q390.85-21.76 389.82-22.46ZM433.22-26.62L433.22-26.62L433.22-26.62Q433.22-23.94 430.98-22.27L430.98-22.27L430.98-22.27Q428.74-20.61 425.09-20.61L425.09-20.61L425.09-20.61Q423.55-20.61 422.66-21.06L422.66-21.06L422.66-21.06Q423.36-22.72 423.58-24.80L423.58-24.80L423.58-24.80Q423.81-26.88 423.81-27.46L423.81-27.46L423.81-27.46Q423.81-30.14 421.95-30.14L421.95-30.14L421.95-30.14Q420.67-30.14 419.23-28.54L419.23-28.54L419.23-28.54Q417.79-26.94 416.58-24.45L416.58-24.45L416.58-24.45Q413.89-18.69 413.89-12.86L413.89-12.86L413.89-12.86Q413.89-9.66 415.10-8.22L415.10-8.22L415.10-8.22Q416.32-6.78 419.01-6.78L419.01-6.78L419.01-6.78Q422.72-6.78 425.66-9.86L425.66-9.86L425.66-9.86Q426.50-10.82 426.94-11.90L426.94-11.90L426.94-11.90Q429.38-10.62 429.38-7.10L429.38-7.10L429.38-7.10Q429.38-3.52 425.41-1.15L425.41-1.15L425.41-1.15Q421.31 1.28 414.78 1.28L414.78 1.28L414.78 1.28Q401.79 1.28 401.79-12.48L401.79-12.48L401.79-12.48Q401.79-22.53 407.49-28.29L407.49-28.29L407.49-28.29Q412.99-33.92 423.10-33.92L423.10-33.92L423.10-33.92Q433.22-33.92 433.22-26.62ZM455.49-2.69L455.49-2.69L455.49-2.69Q452.42 1.28 444.80 1.28L444.80 1.28L444.80 1.28Q440.83 1.28 437.95-1.12L437.95-1.12L437.95-1.12Q435.07-3.52 435.07-6.98L435.07-6.98L435.07-6.98Q435.07-8.90 435.26-9.86L435.26-9.86L439.55-32.64L452.54-33.92L447.87-9.22L447.87-9.22Q447.62-7.81 447.62-6.98L447.62-6.98L447.62-6.98Q447.62-3.26 449.86-3.26L449.86-3.26L449.86-3.26Q452.35-3.26 454.14-6.66L454.14-6.66L454.14-6.66Q454.72-7.74 454.98-9.15L454.98-9.15L459.52-32.64L472.13-33.92L467.39-8.96L467.39-8.96Q467.20-8 467.20-6.98L467.20-6.98L467.20-6.98Q467.20-5.95 467.78-4.83L467.78-4.83L467.78-4.83Q468.35-3.71 470.21-3.46L470.21-3.46L470.21-3.46Q469.82-1.92 468.48-0.90L468.48-0.90L468.48-0.90Q465.66 1.28 462.62 1.28L462.62 1.28L462.62 1.28Q459.58 1.28 457.79 0.19L457.79 0.19L457.79 0.19Q456-0.90 455.49-2.69ZM501.25-10.82L501.25-10.82L501.25-10.82Q502.85-9.73 502.85-7.33L502.85-7.33L502.85-7.33Q502.85-4.93 501.63-3.39L501.63-3.39L501.63-3.39Q500.42-1.86 498.43-0.83L498.43-0.83L498.43-0.83Q494.34 1.28 489.92 1.28L489.92 1.28L489.92 1.28Q485.50 1.28 482.91 0.32L482.91 0.32L482.91 0.32Q480.32-0.64 478.59-2.43L478.59-2.43L478.59-2.43Q475.20-5.82 475.20-12.03L475.20-12.03L475.20-12.03Q475.20-21.70 480.45-27.58L480.45-27.58L480.45-27.58Q486.08-33.92 495.87-33.92L495.87-33.92L495.87-33.92Q501.95-33.92 504.96-31.36L504.96-31.36L504.96-31.36Q507.20-29.44 507.20-26.30L507.20-26.30L507.20-26.30Q507.20-15.04 487.74-15.04L487.74-15.04L487.74-15.04Q487.49-13.38 487.49-11.97L487.49-11.97L487.49-11.97Q487.49-9.02 488.80-7.90L488.80-7.90L488.80-7.90Q490.11-6.78 492.54-6.78L492.54-6.78L492.54-6.78Q494.98-6.78 497.57-7.90L497.57-7.90L497.57-7.90Q500.16-9.02 501.25-10.82ZM488.19-17.79L488.19-17.79L488.19-17.79Q492.74-17.79 495.36-20.61L495.36-20.61L495.36-20.61Q497.98-23.30 497.98-27.58L497.98-27.58L497.98-27.58Q497.98-29.06 497.44-29.86L497.44-29.86L497.44-29.86Q496.90-30.66 495.81-30.66L495.81-30.66L495.81-30.66Q494.72-30.66 493.79-30.24L493.79-30.24L493.79-30.24Q492.86-29.82 491.90-28.42L491.90-28.42L491.90-28.42Q489.54-25.22 488.19-17.79Z" fill="url(#editing-shiny-gradient2)"></path></g></g><style>text {
  font-size: 64px;
  font-family: Arial Black;
  dominant-baseline: central;
  text-anchor: middle;
}</style></svg>